# xmcd CD database file
#
# Track frame offsets:
#	150
#	12779
#	30530
#	48983
#	67538
#	87462
#	107356
#	126655
#	163045
#
# Disc length: 2415 seconds
#
# Revision: 0
# Processed by: cddbd v1.5.2PL0 Copyright (c) Steve Scherf et al.
# Submitted via: CDex 1.85
#
DISCID=67096d09
DTITLE=Michel Cloup Duo - Danser Danser Danser sur les Ruines
DYEAR=2019
DGENRE=Jazz
TTITLE0=Gagnants
TTITLE1=Amnesiques heureux
TTITLE2=Les Invisibles
TTITLE3=Le Futur dans tes yeux
TTITLE4=En ne pensant a  rien
TTITLE5=Le jour d'apres, celui qui suit
TTITLE6=Et bien au-dela
TTITLE7=Les vrais heros ne meurent jamais
TTITLE8=Nous perdre dans nos rires
EXTD=YEAR: 2019
EXTT0=
EXTT1=
EXTT2=
EXTT3=
EXTT4=
EXTT5=
EXTT6=
EXTT7=
EXTT8=
PLAYORDER=
